<svg viewBox="0 0 960 120" preserveAspectRatio="none" xmlns="http://www.w3.org/2000/svg"><path d="m0 17 87 15 88-7 87-8 87 2 87 4 88 7 87-7 87 10 87-18 88 4 87 12V0H0Z" fill="var(--0xf-color-body-background-color)"/><path d="m0 24 87 14 88-6 87-12 87 6 87 5 88 4 87-8 87 15 87-17h88l87 12v-8l-87-12-88-4-87 18-87-10-87 7-88-7-87-4-87-2-87 8-88 7L0 15Z" fill="#2c5050"/><path d="m0 57 87 4h88l87-7 87 5 87 8 88-14 87 7 87-3 87 4 88-2 87 8V35l-87-12h-88l-87 17-87-15-87 8-88-4-87-5-87-6-87 12-88 6L0 22Z" fill="#378f8f"/><path d="m0 67 87 5 88 3 87-14 87 10 87 4 88-9 87 7 87-6 87 6 88-7 87 11V65l-87-8-88 2-87-4-87 3-87-7-88 14-87-8-87-5-87 7H87L0 55Z" fill="#38d4d4"/><path d="m0 81 87 4 88-2 87-12 87 8 87 5 88-3 87 9 87-7 87 2 88-11 87 11V75l-87-11-88 7-87-6-87 6-87-7-88 9-87-4-87-10-87 14-88-3-87-5Z" fill="#36e2e2"/><path d="m0 86 87 4h88l87-11 87 5 87 3 88 2 87 9 87-11 87 4 88-13 87 15V83l-87-11-88 11-87-2-87 7-87-9-88 3-87-5-87-8-87 12-88 2-87-4Z" fill="#38d4d4"/><path d="m0 96 87-1 88 6 87-10 87 2h87l88 2 87 9 87-6 87 4 88-13 87 14V91l-87-15-88 13-87-4-87 11-87-9-88-2-87-3-87-5-87 11H87L0 84Z" fill="#378f8f"/><path d="m0 115 87-4 88 5 87-1 87 1h87l88-1 87-1 87-4 87 3 88-2 87 2v-12l-87-14-88 13-87-4-87 6-87-9-88-2h-87l-87-2-87 10-88-6-87 1Z" fill="#2c5050"/><path d="M0 121h960v-10l-87-2-88 2-87-3-87 4-87 1-88 1h-87l-87-1-87 1-88-5-87 4Z" fill="var(--0xf-color-body-background-color)"/></svg>
